<svg width="58" height="46" viewBox="0 0 58 46" fill="none" xmlns="http://www.w3.org/2000/svg">
<path d="M47.5406 28.5256C45.2431 29.9221 42.6044 30.6566 39.9158 30.648C37.6633 30.6302 35.4364 30.1695 33.3617 29.2921C31.7628 31.5494 30.9071 34.2489 30.9136 37.0151V44.0794C30.9141 44.3421 30.8607 44.6021 30.7566 44.8433C30.6524 45.0845 30.4998 45.3017 30.3082 45.4814C30.1165 45.6612 29.89 45.7995 29.6426 45.888C29.3953 45.9765 29.1324 46.0132 28.8702 45.9958C28.3776 45.9529 27.9195 45.7254 27.5876 45.3589C27.2558 44.9924 27.0747 44.5139 27.0808 44.0195V41.0395L17.8295 31.7882C16.4542 32.3013 14.9998 32.5696 13.532 32.5811C11.5113 32.5864 9.52842 32.0334 7.80201 30.9833C2.58227 27.8117 -0.227623 20.5127 0.31615 11.4506C0.343529 10.9818 0.542108 10.5393 0.874186 10.2073C1.20626 9.87518 1.64872 9.6766 2.11755 9.64923C11.1796 9.11503 18.4787 11.9153 21.6407 17.1351C22.883 19.181 23.4254 21.5758 23.1858 23.9574C23.1709 24.1419 23.1028 24.3182 22.9899 24.4649C22.877 24.6115 22.724 24.7224 22.5494 24.7839C22.3748 24.8455 22.1861 24.8552 22.0062 24.8118C21.8262 24.7684 21.6626 24.6739 21.5353 24.5395L16.936 19.7246C16.5737 19.3804 16.0912 19.1913 15.5915 19.1977C15.0918 19.2041 14.6143 19.4055 14.2609 19.7588C13.9075 20.1122 13.7062 20.5897 13.6998 21.0894C13.6934 21.5891 13.8825 22.0716 14.2267 22.4339L27.1335 35.6689C27.1479 35.482 27.1646 35.2952 27.1838 35.1107C27.6029 31.5576 29.1707 28.2386 31.649 25.6582L43.7677 12.852C44.1273 12.4927 44.3294 12.0053 44.3297 11.497C44.3299 10.9887 44.1282 10.5011 43.7689 10.1415C43.4096 9.78191 42.9222 9.57976 42.4139 9.57954C41.9056 9.57931 41.418 9.78102 41.0584 10.1403L29.3206 22.5537C29.2031 22.6781 29.0544 22.7688 28.89 22.8164C28.7256 22.8639 28.5514 22.8665 28.3856 22.824C28.2199 22.7814 28.0685 22.6953 27.9473 22.5744C27.8261 22.4536 27.7395 22.3025 27.6964 22.1368C26.561 17.9496 27.0616 13.7814 29.2296 10.2026C33.5079 3.14072 43.4635 -0.639345 55.8624 0.0888798C56.3313 0.116259 56.7737 0.314838 57.1058 0.646916C57.4379 0.978993 57.6365 1.42145 57.6638 1.89028C58.3825 14.2917 54.6024 24.2473 47.5406 28.5256Z" fill="#123800"/>
</svg>
